<svg width="1241" height="775" viewBox="0 0 1241 775" fill="none" xmlns="http://www.w3.org/2000/svg">
<path fill-rule="evenodd" clip-rule="evenodd" d="M0 0H1241V775H0V0ZM1.93906 1.38393H153.186V109.33H1.29996L1.93906 1.38393ZM154.659 1.38393H308.311V109.33H154.659V1.38393ZM463.436 1.38393H309.843V109.33H463.436V1.38393ZM465.027 1.38393H618.561V109.33H465.027V1.38393ZM773.686 1.38393H620.212V109.33H773.686V1.38393ZM775.396 1.38393H928.811V109.33H775.396V1.38393ZM1083.94 1.38393H930.58V109.33H1083.94V1.38393ZM1085.76 1.38393H1239.06V109.33H1085.76V1.38393ZM153.186 111.073H1.29996V220.045H153.186V111.073ZM154.659 111.073L308.311 112.098V220.045H154.659V111.073ZM463.436 112.098H309.843V220.045H463.436V112.098ZM465.027 112.098H618.561V220.045H465.027V112.098ZM773.686 112.098H620.212V220.045H773.686V112.098ZM775.396 112.098H928.811V220.045H775.396V112.098ZM1083.94 112.098H930.58V220.045H1083.94V112.098ZM1085.76 112.098H1239.06V220.045H1085.76V112.098ZM153.186 221.955H1.29996V330.759H153.186V221.955ZM154.659 221.955L308.311 222.812V330.759H154.659V221.955ZM463.436 222.812H309.843V330.759H463.436V222.812ZM465.027 222.812H618.561V330.759H465.027V222.812ZM773.686 222.812H620.212V330.759H773.686V222.812ZM775.396 222.812H928.811V330.759H775.396V222.812ZM1083.94 222.812H930.58V330.623L1083.94 330.759V222.812ZM1085.76 222.812H1239.06V330.759L1085.76 330.623V222.812ZM153.186 332.449H1.29996V441.473H153.186V332.449ZM154.659 332.449L308.311 333.527V441.473H154.659V332.449ZM463.436 333.527H309.843V441.473H463.436V333.527ZM465.027 333.527H618.561V441.473H465.027V333.527ZM773.686 333.527H620.212V441.473H773.686V333.527ZM775.396 333.527H928.811V441.473H775.396V333.527ZM1083.94 333.527L930.58 333.391V441.473H1083.94V333.527ZM1085.76 333.391L1239.06 333.527V441.473H1087.81L1085.76 333.391ZM153.186 443.643H1.29996V552.187H153.186V443.643ZM154.659 443.643L308.311 444.241V552.187H154.659V443.643ZM463.436 444.241H309.843V552.187H463.436V444.241ZM465.027 444.241H618.561V552.187H465.027V444.241ZM773.686 444.241H620.212V552.187H773.686V444.241ZM775.396 444.241H928.811V552.187L775.396 552.525V444.241ZM1083.94 444.241H930.58V552.187H1083.94V444.241ZM1087.81 444.241H1239.06V552.187H1085.76L1087.81 444.241ZM153.186 553.438H1.29996V662.902H153.186V553.438ZM154.659 553.438L308.311 554.955V662.902H154.659V553.438ZM463.436 554.955H309.843V662.902H463.436V554.955ZM465.027 554.955H618.561V662.902H465.027V554.955ZM773.686 554.955H620.212V662.902H773.686V554.955ZM775.396 554.955H928.811V662.902H775.396V554.955ZM1083.94 554.955H930.58V662.991L1083.94 662.902V554.955ZM1085.76 554.955H1239.06V662.902H1085.76V554.955ZM152.833 664.846H1.29996V773.616H153.186L152.833 664.846ZM154.659 664.846L308.311 665.67V773.616H154.659V664.846ZM463.436 665.67H309.843V773.616H463.436V665.67ZM465.027 665.67H618.561V773.616H465.027V665.67ZM773.686 665.67H620.212V773.616H773.686V665.67ZM775.396 665.67H928.811V773.616H775.396V665.67ZM1083.94 665.67L930.58 665.759V773.616H1083.94V665.67ZM1085.76 665.67H1239.06V773.616H1085.76V665.67Z" fill="url(#paint0_linear_353_4138)" fill-opacity="0.2"/>
<defs>
<linearGradient id="paint0_linear_353_4138" x1="620.5" y1="-99.4362" x2="461.944" y2="383.673" gradientUnits="userSpaceOnUse">
<stop stop-color="#DE4CA4" stop-opacity="0"/>
<stop offset="1" stop-color="#E25386" stop-opacity="0.5"/>
</linearGradient>
</defs>
</svg>
