<svg width="18" height="18" viewBox="0 0 18 18" xmlns="http://www.w3.org/2000/svg">
<path d="M10.9825 9.00002L17.7124 2.26978C17.8976 2.08451 17.9997 1.83734 18 1.57378C18 1.31007 17.8979 1.06261 17.7124 0.877635L17.1227 0.288025C16.9373 0.102318 16.6901 0.000610352 16.4262 0.000610352C16.1628 0.000610352 15.9157 0.102318 15.7302 0.288025L9.00029 7.01783L2.27005 0.288025C2.08493 0.102318 1.83761 0.000610352 1.5739 0.000610352C1.31049 0.000610352 1.06317 0.102318 0.878049 0.288025L0.288 0.877635C-0.096 1.26163 -0.096 1.88622 0.288 2.26978L7.0181 9.00002L0.288 15.73C0.102732 15.9155 0.000731707 16.1627 0.000731707 16.4263C0.000731707 16.6898 0.102732 16.937 0.288 17.1224L0.877902 17.712C1.06302 17.8976 1.31049 17.9994 1.57376 17.9994C1.83746 17.9994 2.08478 17.8976 2.2699 17.712L9.00015 10.9821L15.7301 17.712C15.9155 17.8976 16.1627 17.9994 16.4261 17.9994C16.6897 17.9994 16.9371 17.8976 17.1225 17.712L17.7123 17.1224C17.8974 16.9371 17.9996 16.6898 17.9996 16.4263C17.9996 16.1627 17.8974 15.9155 17.7123 15.7301L10.9825 9.00002Z"/>
</svg>
