<svg width="36" height="30" viewBox="0 0 36 30" xmlns="http://www.w3.org/2000/svg">
<path d="M17.4945 7.99444L17.5704 9.24554L16.3059 9.09233C11.7033 8.50512 7.68227 6.5136 4.26807 3.169L2.59908 1.5095L2.16914 2.73499C1.25864 5.46692 1.84028 8.35192 3.73705 10.2922C4.74862 11.3647 4.521 11.5179 2.77608 10.8796C2.16914 10.6753 1.63797 10.5221 1.5875 10.5986C1.41049 10.7774 2.01744 13.1007 2.49784 14.0199C3.15541 15.2965 4.49569 16.5474 5.96251 17.2878L7.20172 17.875L5.73489 17.9007C4.31868 17.9007 4.26807 17.9261 4.41992 18.4623C4.92563 20.1218 6.92348 21.8835 9.14895 22.6494L10.717 23.1856L9.35126 24.0025C7.32811 25.1771 4.95094 25.8408 2.57377 25.8919C1.43565 25.9175 0.5 26.0195 0.5 26.0962C0.5 26.3515 3.58535 27.7813 5.38088 28.3429C10.7675 30.0024 17.1658 29.2876 21.9707 26.4536C25.3848 24.4367 28.7988 20.4282 30.3921 16.5474C31.2519 14.4794 32.1118 10.7008 32.1118 8.88806C32.1118 7.71364 32.1876 7.56043 33.6038 6.15627C34.4384 5.33918 35.2223 4.44556 35.3742 4.19037C35.627 3.70529 35.6018 3.70529 34.312 4.1393C32.1624 4.90517 31.8589 4.80304 32.9211 3.65422C33.705 2.83713 34.6407 1.35629 34.6407 0.922288C34.6407 0.845761 34.2614 0.973357 33.8314 1.20309C33.3763 1.45843 32.3647 1.84137 31.606 2.07125L30.2404 2.50526L29.0012 1.66271C28.3184 1.20309 27.3573 0.692556 26.8516 0.53935C25.5618 0.181871 23.5893 0.232941 22.426 0.641488C19.2647 1.79045 17.2669 4.75197 17.4945 7.99444Z"/>
</svg>
